# xmcd
#
# Track frame offsets:
#	150
#	3837
#	10061
#	24443
#	32467
#	50082
#	59310
#	62756
#	76133
#	83691
#	95754
#	108309
#	118745
#	124745
#	133285
#	144045
#	155221
#	161149
#	173389
#	186042
#	189616
#	202189
#	205210
#	219018
#	229030
#	235469
#	245166
#	260783
#	273244
#	282373
#	289051
#	298494
#	312249
#	325664
#
# Disc length: 4494 seconds
#
# Revision: 1
# Processed by: cddbd v1.4PL0 Copyright (c) Steve Scherf et al.
# Submitted via: audiograbber 1.80
#
DISCID=f4118c22
DTITLE=Sons Of The Pioneers - Memories Of The Lucky U Ranch
DYEAR=1900
DGENRE=
TTITLE0=Introduction by Lloyd Perryman
TTITLE1=There's a blue sky way out yonder
TTITLE2=Little Annie Rooney
TTITLE3=Cowboy Jubilee
TTITLE4=This ain't the same ol' range
TTITLE5='Deed I do (Instrumental)
TTITLE6=Introductory conversation (L. Perryman and K. Curtis)
TTITLE7=Heart break hill
TTITLE8=Silver bell
TTITLE9=He's ridin' home
TTITLE10=Blue Prairie
TTITLE11=Dink Swink (Comedy feat. L. Perryman and K.Curtis)
TTITLE12=Happy rovin' cowboy
TTITLE13=Blues in D (Instrumental)
TTITLE14=Introductory conversation
TTITLE15=Hillbilly wedding in June
TTITLE16=Introductory conversation (Feat. Stan Jones)
TTITLE17=My gal is purple
TTITLE18=Put on your old grey bonnet
TTITLE19=Introductory conversation
TTITLE20=Owl lullaby
TTITLE21=Introductory conversation
TTITLE22=Too old to cut the mustard
TTITLE23=Sweet Georgia Brown (Instrumental)
TTITLE24=Echoes from the hills
TTITLE25=Love song of the waterfall
TTITLE26=Room full of roses
TTITLE27=Keep a light in your window tonight
TTITLE28=I was seeing Nellie home
TTITLE29=Cina boy (Instrumental)
TTITLE30=Thought for the day and monologue (Feat. Hugh Farr)
TTITLE31=Bring your roses to her now
TTITLE32=When you come to the end of the day
TTITLE33=Tumbling tumbleweeds (Theme song)
EXTD=
EXTT0=
EXTT1=
EXTT2=
EXTT3=
EXTT4=
EXTT5=
EXTT6=
EXTT7=
EXTT8=
EXTT9=
EXTT10=
EXTT11=
EXTT12=
EXTT13=
EXTT14=
EXTT15=
EXTT16=
EXTT17=
EXTT18=
EXTT19=
EXTT20=
EXTT21=
EXTT22=
EXTT23=
EXTT24=
EXTT25=
EXTT26=
EXTT27=
EXTT28=
EXTT29=
EXTT30=
EXTT31=
EXTT32=
EXTT33=
PLAYORDER=
